<svg xmlns="http://www.w3.org/2000/svg" width="1804" height="930"><defs><linearGradient id="a" x1="290.718" x2="350.121" y1="289.065" y2="565.291" gradientUnits="userSpaceOnUse"><stop offset="0" stop-color="#DFD8AF"/><stop offset="1" stop-color="#A99361"/></linearGradient></defs><path fill="url(#a)" d="M606.268 206.822c-.382-9.516-2.479-16.56-9.701-23.141-12.273-11.184-33.084-16.006-49.145-18.272-11.08-1.562-22.742-1.14-33.917-1.066-11.85.071-23.701.078-35.552.024l-51.658-.077c-15.566-.125-38.385-.566-53.939.258-60.567-.258-143.15-.258-222.635.861 0 0 .029 81.592 0 106.027h110.435c0 149.412 3.116 295.772 3.116 448.525h130.277c.589-4.314.244-9.103.237-13.462l-.038-25.28.011-87.807.034-306.917c.091.066.184.128.273.195 2.374 1.766 4.32 4.288 6.339 6.458 5.302 5.701 10.883 9.828 18.029 13.017 28.785 12.846 75.548 9.6 107.099 9.552 26.685.134 53.368-.062 80.05-.586l.292-.124c.219-24.104.225-48.208.016-72.31-.001-11.92-.315-23.973.377-35.875Z" transform="scale(.90836 .9082)"/><defs><linearGradient id="b" x1="290.718" x2="350.121" y1="289.065" y2="565.291" gradientUnits="userSpaceOnUse"><stop offset="0" stop-color="#DFD8AF"/><stop offset="1" stop-color="#A99361"/></linearGradient></defs><path fill="url(#b)" d="M606.268 206.822c-.382-9.516-2.479-16.56-9.701-23.141-12.273-11.184-33.084-16.006-49.145-18.272-11.08-1.562-22.742-1.14-33.917-1.066-11.85.071-23.701.078-35.552.024l-51.658-.077c-15.566-.125-38.385-.566-53.939.258-60.567-.258-143.15-.258-222.635.861 0 0 .029 81.592 0 106.027h110.435c0 149.412 3.116 295.772 3.116 448.525h130.277c.589-4.314.244-9.103.237-13.462l-.038-25.28.011-87.807.034-306.917c.091.066.184.128.273.195 2.374 1.766 4.32 4.288 6.339 6.458 5.302 5.701 10.883 9.828 18.029 13.017 28.785 12.846 75.548 9.6 107.099 9.552 26.685.134 53.368-.062 80.05-.586l.292-.124c.219-24.104.225-48.208.016-72.31-.001-11.92-.315-23.973.377-35.875Z" transform="scale(.90836 .9082)"/><defs><linearGradient id="c" x1="330" x2="534" y1="237" y2="237" gradientUnits="userSpaceOnUse"><stop offset="0" stop-color="#856D2F"/><stop offset="1" stop-color="#CCB069"/></linearGradient></defs><path fill="url(#c)" d="M606.394 196c-.088.068-.177.136-.263.206-2.118 1.745-3.533 4.249-5.188 6.359-5.252 6.695-11.199 11.033-19.437 14.611-16.237 7.052-34.574 10.259-52.475 11.385-44.852 2.824-107.805-7.984-146.09 17.159-8.417 5.529-14.35 12.586-14.599 22.156a76.477 76.477 0 0 0 .182 7.778c.102.065.205.128.306.194 2.658 1.766 4.835 4.286 7.095 6.457 5.936 5.7 12.185 9.826 20.185 13.013 32.224 12.843 84.577 9.598 119.898 9.549 29.876.134 59.748-.061 89.617-.585l.328-.124c.245-24.097.251-48.195.018-72.292-.001-11.917-.353-23.966.423-35.866Z" transform="scale(.90836 .9082)"/><defs><linearGradient id="d" x1="436" x2="612" y1="757" y2="393" gradientUnits="userSpaceOnUse"><stop offset="0" stop-color="#61E0D3"/><stop offset="1" stop-color="#BBFAFF"/></linearGradient></defs><path fill="url(#d)" d="M368.2 817.117c.363 9.51 2.351 16.548 9.194 23.126 11.632 11.178 31.354 15.996 46.575 18.261 10.5 1.561 21.552 1.14 32.142 1.065 11.231-.07 22.462-.078 33.692-.025l48.957.079c14.752.124 29.529.565 44.269-.259 37.374-2.088 73.894-22.809 98.652-51.955 17.64-20.768 29.152-44.602 34.967-71.742 5.134-23.966 3.995-49.174 4.023-73.594l-.011-75.469.006-81.851c-.013-15.081.467-30.343-.337-45.398-2.405-45.002-19.175-84.94-51.288-115.158-26.667-25.092-63.254-40.98-99.249-39.91-.558 4.31-.23 9.097-.225 13.453l.037 25.266-.011 87.753-.031 306.731c-.088-.065-.174-.127-.259-.195-2.25-1.763-4.094-4.284-6.008-6.453-5.024-5.698-10.314-9.823-17.086-13.009-27.278-12.839-71.596-9.595-101.496-9.545-25.289-.135-50.577.06-75.862.584l-.277.125a4308.85 4308.85 0 0 0-.016 72.265c.002 11.914.3 23.959-.358 35.855Z" transform="scale(.90836 .9082)"/><defs><linearGradient id="e" x1="436" x2="612" y1="757" y2="393" gradientUnits="userSpaceOnUse"><stop offset="0" stop-color="#61E0D3"/><stop offset="1" stop-color="#BBFAFF"/></linearGradient></defs><path fill="url(#e)" d="M368.2 817.117c.363 9.51 2.351 16.548 9.194 23.126 11.632 11.178 31.354 15.996 46.575 18.261 10.5 1.561 21.552 1.14 32.142 1.065 11.231-.07 22.462-.078 33.692-.025l48.957.079c14.752.124 29.529.565 44.269-.259 37.374-2.088 73.894-22.809 98.652-51.955 17.64-20.768 29.152-44.602 34.967-71.742 5.134-23.966 3.995-49.174 4.023-73.594l-.011-75.469.006-81.851c-.013-15.081.467-30.343-.337-45.398-2.405-45.002-19.175-84.94-51.288-115.158-26.667-25.092-63.254-40.98-99.249-39.91-.558 4.31-.23 9.097-.225 13.453l.037 25.266-.011 87.753-.031 306.731c-.088-.065-.174-.127-.259-.195-2.25-1.763-4.094-4.284-6.008-6.453-5.024-5.698-10.314-9.823-17.086-13.009-27.278-12.839-71.596-9.595-101.496-9.545-25.289-.135-50.577.06-75.862.584l-.277.125a4308.85 4308.85 0 0 0-.016 72.265c.002 11.914.3 23.959-.358 35.855Z" transform="scale(.90836 .9082)"/><defs><linearGradient id="f" x1="550.702" x2="334.458" y1="537.719" y2="537.719" gradientUnits="userSpaceOnUse"><stop offset="0" stop-color="#1C9088"/><stop offset="1" stop-color="#007668"/></linearGradient></defs><path fill="url(#f)" d="m369.166 275.372-.039 306.208-.013 87.604.044 25.223c.008 4.348.394 9.126-.265 13.43-.635 8.439-.433 17.024-.511 25.482-.1 17.238-.09 34.476.029 51.714l.026 18.444c.001 3.134-.385 6.801.243 9.855l.632.133c1.505-.542 7.798-8.266 10.103-10.125 10.227-8.248 24.729-13.06 38.015-15.927 21.98-4.747 45.311-4.138 67.757-3.781 17.341.277 35.043.574 52.344-.465 9.035-.543 18.11-1.161 26.93-3.073 11.698-2.536 23.252-7.24 32.03-14.7 5.058-4.3 8.615-9.64 9.452-15.898.679-5.067.395-10.334.378-15.434l-.067-23.918v-82.36l-.015-212.504-.015-70.511c-.002-13.594-.268-27.238.163-40.827-29.884.523-59.771.717-89.663.584-35.338.048-87.717 3.287-119.958-9.529-8.004-3.182-14.256-7.299-20.194-12.988-2.263-2.165-4.441-4.681-7.101-6.443-.1-.067-.203-.129-.305-.194Z" transform="scale(.90836 .9082)"/><path fill="#158A80" d="M737.678 516.721v-204.6h79.172c14.209 0 27.162 2.66 38.86 7.976 11.696 5.222 21.362 12.47 29 21.752 7.734 9.183 13.679 20.059 17.835 32.625 4.253 12.47 6.381 25.955 6.381 40.455s-2.128 27.937-6.381 40.311c-4.156 12.373-10.101 23.151-17.835 32.335-7.733 9.088-17.449 16.24-29.145 21.46-11.6 5.124-24.506 7.686-38.715 7.686h-79.172Zm27.551-25.81h51.621c10.343 0 19.623-1.935 27.84-5.801 8.313-3.867 15.08-9.231 20.3-16.095 5.318-6.864 9.377-14.887 12.18-24.071 2.803-9.181 4.206-19.189 4.206-30.015 0-14.598-2.37-27.599-7.105-39.004-4.737-11.505-12.085-20.688-22.042-27.552-9.859-6.96-21.654-10.44-35.379-10.44h-51.621v152.978Zm168.358 25.81V378.098h26.971v31.175c6.671-22.812 19.529-34.219 38.572-34.219 4.73 0 9.37.58 13.92 1.738 4.64 1.065 8.03 2.273 10.15 3.626l-4.21 25.231c-6.47-3.189-13.29-4.785-20.44-4.785-8.603 0-15.803 2.948-21.609 8.844-5.799 5.899-10.002 13.632-12.613 23.202-2.513 9.569-3.77 20.685-3.77 33.349v50.462h-26.971Zm140.243-178.499v-26.101h152.1v26.101h-62.05v178.499h-27.99V338.222h-62.06Zm142.12 120.064v-80.188h27.1V456.4c0 11.6 2.67 20.639 7.98 27.115 5.41 6.477 12.86 9.714 22.33 9.714 5.13 0 9.91-.725 14.36-2.174a38.73 38.73 0 0 0 12.46-6.671c3.77-3.092 6.78-7.298 9-12.613 2.23-5.414 3.34-11.698 3.34-18.851v-74.822h26.96v138.623h-26.96v-20.736c-3.88 7.733-9.91 13.63-18.13 17.69-8.21 3.964-16.54 5.946-24.94 5.946-17.31 0-30.59-5.318-39.87-15.95-9.28-10.73-13.83-25.859-13.63-45.385Zm142.11-57.422v-22.766H1383v-52.345h27.11v52.345h29.29v22.766h-29.29v115.857H1383V400.864h-24.94Zm98.76 84.246c-6.58-11.215-9.86-23.926-9.86-38.135 0-14.21 3.28-26.826 9.86-37.846 6.68-11.116 15.47-19.575 26.38-25.376 10.92-5.8 23.02-8.699 36.26-8.699 13.24 0 25.32 2.899 36.25 8.699 11.01 5.801 19.87 14.26 26.54 25.376 6.66 11.02 9.99 23.636 9.99 37.846 0 14.209-3.33 26.92-9.99 38.135-6.67 11.215-15.53 19.769-26.54 25.665-11.03 5.897-23.1 8.846-36.25 8.846-13.16 0-25.24-2.949-36.26-8.846-10.91-5.896-19.7-14.45-26.38-25.665Zm16.81-38.135c0 13.824 4.4 25.036 13.2 33.641 8.91 8.602 19.76 12.904 32.63 12.904 12.76 0 23.53-4.302 32.33-12.904 8.9-8.605 13.34-19.817 13.34-33.641 0-13.63-4.4-24.604-13.2-32.916-8.8-8.41-19.62-12.615-32.47-12.615-12.87 0-23.72 4.205-32.63 12.615-8.8 8.312-13.2 19.286-13.2 32.916Zm142.7 69.746V378.098h26.98v31.175c6.65-22.812 19.51-34.219 38.55-34.219 4.75 0 9.39.58 13.93 1.738 4.63 1.065 8.03 2.273 10.15 3.626l-4.21 25.231c-6.47-3.189-13.28-4.785-20.45-4.785-8.59 0-15.8 2.948-21.6 8.844-5.8 5.899-10 13.632-12.61 23.202-2.51 9.569-3.76 20.685-3.76 33.349v50.462h-26.98Z"/><path fill="#525252" d="M773.812 577.43c18.133 0 25.336 13.376 25.336 27.008 0 13.762-7.203 27.008-25.722 27.008h-25.979v34.595h-8.489V577.43h34.854Zm-.772 46.043c12.732 0 17.619-9.389 17.619-19.035 0-9.517-4.759-19.034-16.976-19.034h-26.236v38.069h25.593Zm87.306 12.346c0 1.157 0 2.444-.129 3.6h-51.701c1.415 12.861 10.417 20.063 22.507 20.063 8.23 0 15.56-3.73 19.548-10.289l7.073 3.087c-5.273 9.646-15.562 15.047-26.878 15.047-16.977 0-30.609-12.475-30.609-31.508 0-19.034 13.632-31.123 30.609-31.123 17.104 0 29.58 12.089 29.58 31.123Zm-51.701-3.472h43.597c-1.156-12.476-9.774-19.806-21.476-19.806-11.833 0-20.578 6.945-22.121 19.806Zm87.137-27.651c3.344 0 7.203.643 9.517 1.8l-1.543 7.845c-3.087-1.286-5.915-1.672-8.102-1.672-14.275 0-18.648 15.948-18.648 30.737v22.635h-8.36v-60.059h8.36v14.661c2.957-10.16 9.389-15.947 18.776-15.947Zm29.35 62.631c-10.419 0-20.836-6.045-21.866-17.491h7.586c.899 5.016 5.532 10.16 14.28 10.16 8.611 0 13.888-4.244 13.888-10.288 0-4.886-3.342-8.102-9.519-9.646l-8.611-2.058c-8.494-2.056-15.308-6.429-15.308-16.461 0-9.774 8.359-16.847 19.804-16.847 10.028 0 19.293 5.53 19.675 16.333h-7.966c-.391-5.402-5.659-9.003-11.582-9.003-6.94 0-11.7 3.987-11.7 9.646 0 5.659 4.887 8.102 9.257 9.131l8.874 2.187c11.709 2.829 15.306 9.901 15.306 16.846 0 10.675-9.647 17.491-22.118 17.491Zm57.708 0c-17.105 0-31.384-12.475-31.384-31.508 0-19.034 14.279-31.123 31.384-31.123 17.104 0 31.51 12.089 31.51 31.123 0 19.033-14.406 31.508-31.51 31.508Zm0-7.845c12.599 0 23.28-9.388 23.28-23.663 0-14.147-10.681-23.278-23.28-23.278-12.736 0-23.154 9.131-23.154 23.278 0 14.275 10.418 23.663 23.154 23.663Zm69.19-54.786c14.53 0 24.43 9.774 24.43 26.364v34.981h-8.23v-34.595c0-11.575-7.33-18.648-16.97-18.648-9.65 0-19.81 5.402-20.07 19.934v33.309h-8.23v-60.059h8.23v10.803c3.6-8.617 13.38-12.089 20.84-12.089Zm86.72 1.286h8.23v60.059h-8.23v-11.703c-4.5 8.231-13.89 12.989-23.92 12.989-16.72 0-30.48-13.118-30.48-31.379 0-18.263 13.63-31.252 30.48-31.252 10.16 0 19.42 4.758 23.92 12.861v-11.575Zm-23.28 53.5c12.48 0 23.28-9.388 23.28-23.277 0-14.533-11.32-23.664-23.28-23.664-12.6 0-22.89 10.031-22.89 23.278 0 13.374 10.29 23.663 22.89 23.663Zm44.4 6.559v-93.884h8.24v93.884h-8.24Zm25.16-76.393c-3.34 0-6.3-2.443-6.3-5.787 0-3.472 2.96-5.916 6.3-5.916 3.61 0 6.43 2.444 6.43 5.916 0 3.344-2.82 5.787-6.43 5.787Zm-4.11 76.393v-60.059h8.23v60.059h-8.23Zm38.02 1.286c-10.42 0-20.83-6.045-21.86-17.491h7.58c.9 5.016 5.53 10.16 14.28 10.16 8.62 0 13.89-4.244 13.89-10.288 0-4.886-3.34-8.102-9.52-9.646l-8.61-2.058c-8.49-2.056-15.31-6.429-15.31-16.461 0-9.774 8.36-16.847 19.81-16.847 10.03 0 19.29 5.53 19.67 16.333h-7.97c-.39-5.402-5.66-9.003-11.57-9.003-6.95 0-11.71 3.987-11.71 9.646 0 5.659 4.89 8.102 9.26 9.131l8.88 2.187c11.7 2.829 15.3 9.901 15.3 16.846 0 10.675-9.65 17.491-22.12 17.491Zm86.52-31.508c0 1.157 0 2.444-.13 3.6h-51.7c1.41 12.861 10.41 20.063 22.5 20.063 8.23 0 15.56-3.73 19.55-10.289l7.08 3.087c-5.28 9.646-15.57 15.047-26.88 15.047-16.98 0-30.61-12.475-30.61-31.508 0-19.034 13.63-31.123 30.61-31.123 17.1 0 29.58 12.089 29.58 31.123Zm-51.7-3.472h43.59c-1.15-12.476-9.76-19.806-21.47-19.806-11.84 0-20.58 6.945-22.12 19.806Zm110.28-60.19h8.23v93.884h-8.23v-11.703c-4.49 8.231-13.89 12.989-23.91 12.989-16.73 0-30.49-13.118-30.49-31.379 0-18.263 13.63-31.252 30.49-31.252 10.15 0 19.42 4.758 23.91 12.861v-45.4Zm-23.27 87.325c12.47 0 23.27-9.388 23.27-23.277 0-14.533-11.31-23.664-23.27-23.664-12.61 0-22.9 10.031-22.9 23.278 0 13.374 10.29 23.663 22.9 23.663Zm123.3-82.052v7.974h-28.29v80.637h-8.49v-80.637h-28.17v-7.974h64.95Zm37.82 28.552h8.23v60.059h-8.23v-10.546c-3.6 8.488-13.37 11.832-20.83 11.832-14.53 0-24.44-9.774-24.31-26.364v-34.981h8.23v34.594c0 11.575 7.2 18.649 16.98 18.649 9.52 0 19.8-5.402 19.93-19.934v-33.309Zm47.12 0v7.073h-13.76v52.986h-8.11v-52.986h-10.93v-7.073h10.93v-23.921h8.11v23.921h13.76Zm30.87 61.345c-17.11 0-31.38-12.475-31.38-31.508 0-19.034 14.27-31.123 31.38-31.123 17.1 0 31.51 12.089 31.51 31.123 0 19.033-14.41 31.508-31.51 31.508Zm0-7.845c12.6 0 23.28-9.388 23.28-23.663 0-14.147-10.68-23.278-23.28-23.278-12.73 0-23.15 9.131-23.15 23.278 0 14.275 10.42 23.663 23.15 23.663Zm67.26-54.786c3.34 0 7.2.643 9.52 1.8l-1.55 7.845c-3.08-1.286-5.91-1.672-8.1-1.672-14.28 0-18.64 15.948-18.64 30.737v22.635H1620v-60.059h8.37v14.661c2.95-10.16 9.38-15.947 18.77-15.947Zm29.35 62.631c-10.42 0-20.84-6.045-21.87-17.491h7.59c.9 5.016 5.53 10.16 14.28 10.16 8.61 0 13.88-4.244 13.88-10.288 0-4.886-3.34-8.102-9.51-9.646l-8.62-2.058c-8.48-2.056-15.3-6.429-15.3-16.461 0-9.774 8.36-16.847 19.8-16.847 10.03 0 19.29 5.53 19.68 16.333h-7.97c-.39-5.402-5.66-9.003-11.58-9.003-6.94 0-11.7 3.987-11.7 9.646 0 5.659 4.88 8.102 9.26 9.131l8.87 2.187c11.7 2.829 15.31 9.901 15.31 16.846 0 10.675-9.65 17.491-22.12 17.491Z"/></svg>